REM DIRINDEX 1\2,1\3\7,1\3\8,1\4\9,1\4\10,1\4\11,1\5\12,1\5\13,1\5\14,1\6\15,1\6\16,1\6\17
REM DIRNAME "folder01","folder02","folder03","folder04","folder05","folder06","folder07","folder08","folder09","folder10","folder11","folder12","folder13","folder14","folder15","folder16","folder17"
TITLE ""
FILE "2Q_t_0036-0051.mp3" MP3
  TRACK 01 AUDIO
    TITLE "7:cjc174_1800"
    INDEX 01 00:00:00
  TRACK 02 AUDIO
    TITLE "0:"
    INDEX 01 00:01:22
  TRACK 03 AUDIO
    TITLE "8:cjc174_1801"
    INDEX 01 00:01:65
  TRACK 04 AUDIO
    TITLE "0:"
    INDEX 01 00:07:18
  TRACK 05 AUDIO
    TITLE "7:cjc174_1802"
    INDEX 01 00:07:63
  TRACK 06 AUDIO
    TITLE "0:"
    INDEX 01 00:08:65
  TRACK 07 AUDIO
    TITLE "8:cjc174_1803"
    INDEX 01 00:09:37
  TRACK 08 AUDIO
    TITLE "0:"
    INDEX 01 00:10:58
  TRACK 09 AUDIO
    TITLE "7:cjc174_1804"
    INDEX 01 00:11:28
  TRACK 10 AUDIO
    TITLE "0:"
    INDEX 01 00:12:23
  TRACK 11 AUDIO
    TITLE "8:cjc174_1805"
    INDEX 01 00:12:68
  TRACK 12 AUDIO
    TITLE "0:"
    INDEX 01 00:14:24
  TRACK 13 AUDIO
    TITLE "7:cjc174_1806"
    INDEX 01 00:14:67
  TRACK 14 AUDIO
    TITLE "0:"
    INDEX 01 00:16:07
  TRACK 15 AUDIO
    TITLE "8:cjc174_1807"
    INDEX 01 00:16:52
  TRACK 16 AUDIO
    TITLE "0:"
    INDEX 01 00:19:41
  TRACK 17 AUDIO
    TITLE "7:cjc174_1808"
    INDEX 01 00:20:09
  TRACK 18 AUDIO
    TITLE "0:"
    INDEX 01 00:21:18
  TRACK 19 AUDIO
    TITLE "8:cjc174_1809"
    INDEX 01 00:21:67
  TRACK 20 AUDIO
    TITLE "0:"
    INDEX 01 00:23:31
  TRACK 21 AUDIO
    TITLE "7:cjc174_1810"
    INDEX 01 00:23:74
  TRACK 22 AUDIO
    TITLE "0:"
    INDEX 01 00:25:10
  TRACK 23 AUDIO
    TITLE "8:cjc174_1811"
    INDEX 01 00:25:57
  TRACK 24 AUDIO
    TITLE "0:"
    INDEX 01 00:28:05
  TRACK 25 AUDIO
    TITLE "7:cjc174_1812"
    INDEX 01 00:28:50
  TRACK 26 AUDIO
    TITLE "0:"
    INDEX 01 00:29:47
  TRACK 27 AUDIO
    TITLE "8:cjc174_1813"
    INDEX 01 00:30:21
  TRACK 28 AUDIO
    TITLE "0:"
    INDEX 01 00:31:52
  TRACK 29 AUDIO
    TITLE "7:cjc174_1814"
    INDEX 01 00:32:20
  TRACK 30 AUDIO
    TITLE "0:"
    INDEX 01 00:33:27
  TRACK 31 AUDIO
    TITLE "8:cjc174_1815"
    INDEX 01 00:33:74
  TRACK 32 AUDIO
    TITLE "0:"
    INDEX 01 00:38:03
  TRACK 33 AUDIO
    TITLE "2:cjc174_1816"
    INDEX 01 00:38:48
  TRACK 34 AUDIO
    TITLE "0:"
    INDEX 01 00:39:51
  TRACK 35 AUDIO
    TITLE "7:cjc174_1817"
    INDEX 01 00:40:22
  TRACK 36 AUDIO
    TITLE "0:"
    INDEX 01 00:41:21
  TRACK 37 AUDIO
    TITLE "8:cjc174_1818"
    INDEX 01 00:41:68
  TRACK 38 AUDIO
    TITLE "0:"
    INDEX 01 00:44:10
  TRACK 39 AUDIO
    TITLE "7:cjc174_1819"
    INDEX 01 00:44:53
  TRACK 40 AUDIO
    TITLE "0:"
    INDEX 01 00:45:62
  TRACK 41 AUDIO
    TITLE "8:cjc174_1820"
    INDEX 01 00:46:36
  TRACK 42 AUDIO
    TITLE "0:"
    INDEX 01 00:48:27
  TRACK 43 AUDIO
    TITLE "7:cjc174_1821"
    INDEX 01 00:48:72
  TRACK 44 AUDIO
    TITLE "0:"
    INDEX 01 00:50:18
  TRACK 45 AUDIO
    TITLE "8:cjc174_1822"
    INDEX 01 00:50:63
  TRACK 46 AUDIO
    TITLE "0:"
    INDEX 01 00:51:66
  TRACK 47 AUDIO
    TITLE "7:cjc174_1823"
    INDEX 01 00:52:36
  TRACK 48 AUDIO
    TITLE "0:"
    INDEX 01 00:53:42
  TRACK 49 AUDIO
    TITLE "8:cjc174_1824"
    INDEX 01 00:54:16
  TRACK 50 AUDIO
    TITLE "0:"
    INDEX 01 00:57:22
  TRACK 51 AUDIO
    TITLE "7:cjc174_1825"
    INDEX 01 00:57:67
  TRACK 52 AUDIO
    TITLE "0:"
    INDEX 01 00:59:11
  TRACK 53 AUDIO
    TITLE "8:cjc174_1826"
    INDEX 01 00:59:56
  TRACK 54 AUDIO
    TITLE "0:"
    INDEX 01 01:01:69
  TRACK 55 AUDIO
    TITLE "7:cjc174_1827"
    INDEX 01 01:02:39
  TRACK 56 AUDIO
    TITLE "0:"
    INDEX 01 01:03:64
  TRACK 57 AUDIO
    TITLE "8:cjc174_1828"
    INDEX 01 01:04:36
  TRACK 58 AUDIO
    TITLE "0:"
    INDEX 01 01:05:57
  TRACK 59 AUDIO
    TITLE "7:cjc174_1829"
    INDEX 01 01:06:25
  TRACK 60 AUDIO
    TITLE "0:"
    INDEX 01 01:07:40
  TRACK 61 AUDIO
    TITLE "8:cjc174_1830"
    INDEX 01 01:08:12
  TRACK 62 AUDIO
    TITLE "0:"
    INDEX 01 01:09:15
  TRACK 63 AUDIO
    TITLE "7:cjc174_1831"
    INDEX 01 01:09:60
  TRACK 64 AUDIO
    TITLE "0:"
    INDEX 01 01:10:68
  TRACK 65 AUDIO
    TITLE "8:cjc174_1832"
    INDEX 01 01:11:40
  TRACK 66 AUDIO
    TITLE "0:"
    INDEX 01 01:14:48
